<svg width="35" height="35" viewBox="0 0 78 78" fill="none" xmlns="http://www.w3.org/2000/svg">
<g filter="url(#filter0_d_45_8)">
<g filter="url(#filter1_d_45_8)">
<circle cx="39" cy="35.0001" r="35" transform="rotate(180 39 35.0001)" fill="url(#paint0_linear_45_8)"/>
</g>
<circle cx="39.0007" cy="35.001" r="32.2" transform="rotate(180 39.0007 35.001)" fill="url(#paint1_linear_45_8)"/>
<path fill-rule="evenodd" clip-rule="evenodd" d="M42.2591 28.9014C42.916 28.3905 43.873 28.8586 43.873 29.6908V40.4876C43.873 41.3197 42.916 41.7878 42.2591 41.2769L35.3183 35.8785C34.8036 35.4782 34.8036 34.7002 35.3183 34.2998L42.2591 28.9014Z" fill="#828282"/>
<rect width="2.12658" height="10.6329" rx="1" transform="matrix(-1 0 0 1 35.3672 29.7734)" fill="#828282"/>
</g>
<defs>
<filter id="filter0_d_45_8" x="0" y="0.00012207" width="78" height="78" filterUnits="userSpaceOnUse" color-interpolation-filters="sRGB">
<feFlood flood-opacity="0" result="BackgroundImageFix"/>
<feColorMatrix in="SourceAlpha" type="matrix" values="0 0 0 0 0 0 0 0 0 0 0 0 0 0 0 0 0 0 127 0" result="hardAlpha"/>
<feOffset dy="4"/>
<feGaussianBlur stdDeviation="2"/>
<feComposite in2="hardAlpha" operator="out"/>
<feColorMatrix type="matrix" values="0 0 0 0 0.0291232 0 0 0 0 0.0291232 0 0 0 0 0.0291232 0 0 0 0.75 0"/>
<feBlend mode="normal" in2="BackgroundImageFix" result="effect1_dropShadow_45_8"/>
<feBlend mode="normal" in="SourceGraphic" in2="effect1_dropShadow_45_8" result="shape"/>
</filter>
<filter id="filter1_d_45_8" x="0" y="0.00012207" width="78" height="78" filterUnits="userSpaceOnUse" color-interpolation-filters="sRGB">
<feFlood flood-opacity="0" result="BackgroundImageFix"/>
<feColorMatrix in="SourceAlpha" type="matrix" values="0 0 0 0 0 0 0 0 0 0 0 0 0 0 0 0 0 0 127 0" result="hardAlpha"/>
<feOffset dy="4"/>
<feGaussianBlur stdDeviation="2"/>
<feComposite in2="hardAlpha" operator="out"/>
<feColorMatrix type="matrix" values="0 0 0 0 0 0 0 0 0 0 0 0 0 0 0 0 0 0 0.6 0"/>
<feBlend mode="normal" in2="BackgroundImageFix" result="effect1_dropShadow_45_8"/>
<feBlend mode="normal" in="SourceGraphic" in2="effect1_dropShadow_45_8" result="shape"/>
</filter>
<linearGradient id="paint0_linear_45_8" x1="62.8" y1="61.2501" x2="12.05" y2="13.3001" gradientUnits="userSpaceOnUse">
<stop stop-color="#45464B"/>
<stop offset="1" stop-color="#151516"/>
</linearGradient>
<linearGradient id="paint1_linear_45_8" x1="67.3507" y1="51.101" x2="12.0506" y2="15.401" gradientUnits="userSpaceOnUse">
<stop/>
<stop offset="1" stop-color="#141414"/>
</linearGradient>
</defs>
</svg>
