<svg width="63" height="63" viewBox="0 0 74 74" fill="none" xmlns="http://www.w3.org/2000/svg">
<g filter="url(#filter0_d_19_102)">
<circle cx="37" cy="33" r="21" fill="url(#paint0_linear_19_102)"/>
</g>
<circle cx="37.0002" cy="32.9998" r="19.32" fill="url(#paint1_linear_19_102)"/>
<path fill-rule="evenodd" clip-rule="evenodd" d="M32.5 27C31.6716 27 31 27.6716 31 28.5V38.5C31 39.3284 31.6716 40 32.5 40C33.3284 40 34 39.3284 34 38.5V28.5C34 27.6716 33.3284 27 32.5 27Z" fill="white"/>
<path fill-rule="evenodd" clip-rule="evenodd" d="M39.5 27C38.6716 27 38 27.6716 38 28.5V38.5C38 39.3284 38.6716 40 39.5 40C40.3284 40 41 39.3284 41 38.5V28.5C41 27.6716 40.3284 27 39.5 27Z" fill="white"/>
<defs>
<filter id="filter0_d_19_102" x="0" y="0" width="74" height="74" filterUnits="userSpaceOnUse" color-interpolation-filters="sRGB">
<feFlood flood-opacity="0" result="BackgroundImageFix"/>
<feColorMatrix in="SourceAlpha" type="matrix" values="0 0 0 0 0 0 0 0 0 0 0 0 0 0 0 0 0 0 127 0" result="hardAlpha"/>
<feMorphology radius="4" operator="dilate" in="SourceAlpha" result="effect1_dropShadow_19_102"/>
<feOffset dy="4"/>
<feGaussianBlur stdDeviation="6"/>
<feComposite in2="hardAlpha" operator="out"/>
<feColorMatrix type="matrix" values="0 0 0 0 0.179618 0 0 0 0 0.15215 0 0 0 0 0.223568 0 0 0 0.45 0"/>
<feBlend mode="normal" in2="BackgroundImageFix" result="effect1_dropShadow_19_102"/>
<feBlend mode="normal" in="SourceGraphic" in2="effect1_dropShadow_19_102" result="shape"/>
</filter>
<linearGradient id="paint0_linear_19_102" x1="51.28" y1="48.75" x2="20.83" y2="19.98" gradientUnits="userSpaceOnUse">
<stop stop-color="#1C0C2C"/>
<stop offset="1" stop-color="#6B35A2"/>
</linearGradient>
<linearGradient id="paint1_linear_19_102" x1="54.0102" y1="42.6598" x2="20.8302" y2="21.2398" gradientUnits="userSpaceOnUse">
<stop stop-color="#7F2EB9"/>
<stop offset="1" stop-color="#5D2386"/>
</linearGradient>
</defs>
</svg>
